<svg width="106" height="30" viewBox="0 0 106 30" fill="none" xmlns="http://www.w3.org/2000/svg">
<g clip-path="url(#clip0_1883_346)">
<path d="M4.7034 20.8559C4.7034 24.8017 7.756 26.3361 11.525 26.3361C15.6678 26.3361 17.1941 24.3946 17.1941 22.453C17.1941 20.5115 16.0728 19.6973 15.0137 19.2902C13.1136 18.6013 10.6529 18.1315 6.97727 17.1608C2.36722 15.9708 0.996667 13.3403 0.996667 10.6785C0.996667 5.60543 6.01165 3.19415 10.8397 3.19415C16.4466 3.19415 21.1812 6.01252 21.1812 11.3674H16.4466C16.2285 8.07933 13.8923 6.85804 10.6529 6.85804C8.47242 6.85804 5.70016 7.6096 5.70016 10.2088C5.70016 11.9937 7.00842 12.9958 8.90851 13.4969C9.34459 13.5908 15.2941 15.0626 16.6958 15.4697C20.2156 16.4718 21.9288 19.3528 21.9288 21.9833C21.9288 27.714 16.5712 30 11.2135 30C5.04603 30 0.062197 27.2129 -0.03125 20.8559H4.7034Z" fill="#FF6022"/>
<path d="M25.48 30V3.19415H44.3251V7.26513H30.2458V13.9979H42.6119V18.1315H30.2458V30.0313H25.48V30Z" fill="black"/>
<path d="M72.1098 16.5971C72.1098 23.9248 67.344 30 59.3698 30C51.3957 30 46.6299 23.8935 46.6299 16.5971C46.6299 9.30063 51.3957 3.19415 59.3698 3.19415C67.344 3.19415 72.1098 9.30063 72.1098 16.5971ZM51.2711 16.5971C51.2711 21.5136 53.6384 26.3361 59.3698 26.3361C65.1012 26.3361 67.4686 21.4823 67.4686 16.5971C67.4686 11.7119 65.1012 6.85804 59.3698 6.85804C53.6384 6.85804 51.2711 11.7119 51.2711 16.5971Z" fill="black"/>
<path d="M98.5863 16.5971C98.5863 23.9248 93.8205 30 85.8464 30C77.8722 30 73.1064 23.8935 73.1064 16.5971C73.1064 9.30063 77.8722 3.19415 85.8464 3.19415C93.8205 3.19415 98.5863 9.30063 98.5863 16.5971ZM77.7476 16.5971C77.7476 21.5136 80.115 26.3361 85.8464 26.3361C91.5778 26.3361 93.9451 21.4823 93.9451 16.5971C93.9451 11.7119 91.5778 6.85804 85.8464 6.85804C80.115 6.85804 77.7476 11.7119 77.7476 16.5971Z" fill="black"/>
<path d="M65.3816 21.9833C67.9105 21.9833 69.9605 19.5718 69.9605 16.5971C69.9605 13.6224 67.9105 11.2109 65.3816 11.2109C62.8528 11.2109 60.8027 13.6224 60.8027 16.5971C60.8027 19.5718 62.8528 21.9833 65.3816 21.9833Z" fill="black"/>
<path d="M92.2322 21.9833C94.7611 21.9833 96.8111 19.5718 96.8111 16.5971C96.8111 13.6224 94.7611 11.2109 92.2322 11.2109C89.7034 11.2109 87.6533 13.6224 87.6533 16.5971C87.6533 19.5718 89.7034 21.9833 92.2322 21.9833Z" fill="black"/>
<path d="M102.823 6.38831C104.577 6.38831 106 4.95824 106 3.19415C106 1.43007 104.577 0 102.823 0C101.068 0 99.6455 1.43007 99.6455 3.19415C99.6455 4.95824 101.068 6.38831 102.823 6.38831Z" fill="#FF6022"/>
</g>
<defs>
<clipPath id="clip0_1883_346">
<rect width="106" height="30" fill="white"/>
</clipPath>
</defs>
</svg>
