<svg width="19" height="16" viewBox="0 0 19 16" fill="none" xmlns="http://www.w3.org/2000/svg">
<path d="M18.4224 13.6709C18.4224 14.0909 18.2556 14.4938 17.9585 14.7908C17.6615 15.0879 17.2586 15.2547 16.8386 15.2547H2.58386C2.16379 15.2547 1.76093 15.0879 1.4639 14.7908C1.16687 14.4938 1 14.0909 1 13.6709V4.95965C1 4.53958 1.16687 4.13672 1.4639 3.83969C1.76093 3.54266 2.16379 3.37579 2.58386 3.37579H5.75158L7.33543 1H12.087L13.6709 3.37579H16.8386C17.2586 3.37579 17.6615 3.54266 17.9585 3.83969C18.2556 4.13672 18.4224 4.53958 18.4224 4.95965V13.6709Z" stroke="white" stroke-linecap="round" stroke-linejoin="round"/>
<path d="M9.71117 12.0874C11.4607 12.0874 12.8789 10.6692 12.8789 8.91967C12.8789 7.17019 11.4607 5.75195 9.71117 5.75195C7.96169 5.75195 6.54346 7.17019 6.54346 8.91967C6.54346 10.6692 7.96169 12.0874 9.71117 12.0874Z" stroke="white" stroke-linecap="round" stroke-linejoin="round"/>
</svg>
