<svg width="16" height="17" viewBox="0 0 16 17" fill="none" xmlns="http://www.w3.org/2000/svg">
<path fill-rule="evenodd" clip-rule="evenodd" d="M11.2746 0.820312C13.8296 0.820312 15.546 2.56996 15.546 5.17372V12.6469C15.546 15.2734 13.8825 16.9816 11.308 16.9979L5.0562 17.0003C2.5012 17.0003 0.784058 15.2507 0.784058 12.6469V5.17372C0.784058 2.5464 2.44757 0.839004 5.02206 0.823563L11.2738 0.820312H11.2746ZM11.2746 2.0393L5.02613 2.04255C3.13426 2.05393 2.00304 3.22415 2.00304 5.17372V12.6469C2.00304 14.6095 3.14483 15.7813 5.05538 15.7813L11.3039 15.7789C13.1958 15.7675 14.327 14.5957 14.327 12.6469V5.17372C14.327 3.21115 13.186 2.0393 11.2746 2.0393ZM11.1179 11.7698C11.4543 11.7698 11.7274 12.0429 11.7274 12.3793C11.7274 12.7157 11.4543 12.9888 11.1179 12.9888H5.2505C4.91406 12.9888 4.64101 12.7157 4.64101 12.3793C4.64101 12.0429 4.91406 11.7698 5.2505 11.7698H11.1179ZM11.1179 8.36762C11.4543 8.36762 11.7274 8.64067 11.7274 8.97711C11.7274 9.31355 11.4543 9.58661 11.1179 9.58661H5.2505C4.91406 9.58661 4.64101 9.31355 4.64101 8.97711C4.64101 8.64067 4.91406 8.36762 5.2505 8.36762H11.1179ZM7.48913 4.97331C7.82557 4.97331 8.09862 5.24637 8.09862 5.58281C8.09862 5.91925 7.82557 6.1923 7.48913 6.1923H5.25026C4.91382 6.1923 4.64077 5.91925 4.64077 5.58281C4.64077 5.24637 4.91382 4.97331 5.25026 4.97331H7.48913Z" fill="#353535"/>
</svg>
