<svg width="16" height="17" viewBox="0 0 16 17" fill="none" xmlns="http://www.w3.org/2000/svg">
<path fill-rule="evenodd" clip-rule="evenodd" d="M11.2746 0.819824C13.8296 0.819824 15.546 2.56947 15.546 5.17323V12.6464C15.546 15.2729 13.8825 16.9811 11.308 16.9974L5.0562 16.9998C2.5012 16.9998 0.784058 15.2502 0.784058 12.6464V5.17323C0.784058 2.54591 2.44757 0.838515 5.02206 0.823075L11.2738 0.819824H11.2746ZM11.2746 2.03881L5.02613 2.04206C3.13426 2.05344 2.00304 3.22366 2.00304 5.17323V12.6464C2.00304 14.609 3.14483 15.7808 5.05538 15.7808L11.3039 15.7784C13.1958 15.767 14.327 14.5952 14.327 12.6464V5.17323C14.327 3.21066 13.186 2.03881 11.2746 2.03881ZM11.1179 11.7693C11.4543 11.7693 11.7274 12.0424 11.7274 12.3788C11.7274 12.7153 11.4543 12.9883 11.1179 12.9883H5.2505C4.91406 12.9883 4.64101 12.7153 4.64101 12.3788C4.64101 12.0424 4.91406 11.7693 5.2505 11.7693H11.1179ZM11.1179 8.36713C11.4543 8.36713 11.7274 8.64018 11.7274 8.97663C11.7274 9.31306 11.4543 9.58612 11.1179 9.58612H5.2505C4.91406 9.58612 4.64101 9.31306 4.64101 8.97663C4.64101 8.64018 4.91406 8.36713 5.2505 8.36713H11.1179ZM7.48913 4.97283C7.82557 4.97283 8.09862 5.24588 8.09862 5.58232C8.09862 5.91876 7.82557 6.19181 7.48913 6.19181H5.25026C4.91382 6.19181 4.64077 5.91876 4.64077 5.58232C4.64077 5.24588 4.91382 4.97283 5.25026 4.97283H7.48913Z" fill="#FF611D"/>
</svg>
