<svg width="17" height="19" viewBox="0 0 17 19" fill="none" xmlns="http://www.w3.org/2000/svg">
     <path d="M5.14055 2.05874C4.86788 2.05874 4.60638 2.16706 4.41357 2.35987C4.22076 2.55268 4.11244 2.81418 4.11244 3.08685C4.11244 3.35952 4.22076 3.62103 4.41357 3.81384C4.60638 4.00664 4.86788 4.11496 5.14055 4.11496C5.41323 4.11496 5.67473 4.00664 5.86754 3.81384C6.06035 3.62103 6.16866 3.35952 6.16866 3.08685C6.16866 2.81418 6.06035 2.55268 5.86754 2.35987C5.67473 2.16706 5.41323 2.05874 5.14055 2.05874ZM2.231 2.05874C2.44341 1.45675 2.83732 0.935462 3.35843 0.566736C3.87953 0.19801 4.50219 0 5.14055 0C5.77892 0 6.40157 0.19801 6.92268 0.566736C7.44379 0.935462 7.8377 1.45675 8.05011 2.05874H15.4217C15.6943 2.05874 15.9558 2.16706 16.1486 2.35987C16.3415 2.55268 16.4498 2.81418 16.4498 3.08685C16.4498 3.35952 16.3415 3.62103 16.1486 3.81384C15.9558 4.00664 15.6943 4.11496 15.4217 4.11496H8.05011C7.8377 4.71696 7.44379 5.23824 6.92268 5.60697C6.40157 5.97569 5.77892 6.1737 5.14055 6.1737C4.50219 6.1737 3.87953 5.97569 3.35843 5.60697C2.83732 5.23824 2.44341 4.71696 2.231 4.11496H1.02811C0.755439 4.11496 0.493935 4.00664 0.301127 3.81384C0.108319 3.62103 0 3.35952 0 3.08685C0 2.81418 0.108319 2.55268 0.301127 2.35987C0.493935 2.16706 0.755439 2.05874 1.02811 2.05874H2.231ZM11.3092 8.22741C11.0365 8.22741 10.775 8.33572 10.5822 8.52853C10.3894 8.72134 10.2811 8.98284 10.2811 9.25552C10.2811 9.52819 10.3894 9.78969 10.5822 9.9825C10.775 10.1753 11.0365 10.2836 11.3092 10.2836C11.5819 10.2836 11.8434 10.1753 12.0362 9.9825C12.229 9.78969 12.3373 9.52819 12.3373 9.25552C12.3373 8.98284 12.229 8.72134 12.0362 8.52853C11.8434 8.33572 11.5819 8.22741 11.3092 8.22741ZM8.39966 8.22741C8.61207 7.62541 9.00598 7.10413 9.52709 6.7354C10.0482 6.36667 10.6708 6.16866 11.3092 6.16866C11.9476 6.16866 12.5702 6.36667 13.0913 6.7354C13.6125 7.10413 14.0064 7.62541 14.2188 8.22741H15.4217C15.6943 8.22741 15.9558 8.33572 16.1486 8.52853C16.3415 8.72134 16.4498 8.98284 16.4498 9.25552C16.4498 9.52819 16.3415 9.78969 16.1486 9.9825C15.9558 10.1753 15.6943 10.2836 15.4217 10.2836H14.2188C14.0064 10.8856 13.6125 11.4069 13.0913 11.7756C12.5702 12.1444 11.9476 12.3424 11.3092 12.3424C10.6708 12.3424 10.0482 12.1444 9.52709 11.7756C9.00598 11.4069 8.61207 10.8856 8.39966 10.2836H1.02811C0.755439 10.2836 0.493935 10.1753 0.301127 9.9825C0.108319 9.78969 0 9.52819 0 9.25552C0 8.98284 0.108319 8.72134 0.301127 8.52853C0.493935 8.33572 0.755439 8.22741 1.02811 8.22741H8.39966ZM5.14055 14.3961C4.86788 14.3961 4.60638 14.5044 4.41357 14.6972C4.22076 14.89 4.11244 15.1515 4.11244 15.4242C4.11244 15.6969 4.22076 15.9584 4.41357 16.1512C4.60638 16.344 4.86788 16.4523 5.14055 16.4523C5.41323 16.4523 5.67473 16.344 5.86754 16.1512C6.06035 15.9584 6.16866 15.6969 6.16866 15.4242C6.16866 15.1515 6.06035 14.89 5.86754 14.6972C5.67473 14.5044 5.41323 14.3961 5.14055 14.3961ZM2.231 14.3961C2.44341 13.7941 2.83732 13.2728 3.35843 12.9041C3.87953 12.5353 4.50219 12.3373 5.14055 12.3373C5.77892 12.3373 6.40157 12.5353 6.92268 12.9041C7.44379 13.2728 7.8377 13.7941 8.05011 14.3961H15.4217C15.6943 14.3961 15.9558 14.5044 16.1486 14.6972C16.3415 14.89 16.4498 15.1515 16.4498 15.4242C16.4498 15.6969 16.3415 15.9584 16.1486 16.1512C15.9558 16.344 15.6943 16.4523 15.4217 16.4523H8.05011C7.8377 17.0543 7.44379 17.5756 6.92268 17.9443C6.40157 18.313 5.77892 18.511 5.14055 18.511C4.50219 18.511 3.87953 18.313 3.35843 17.9443C2.83732 17.5756 2.44341 17.0543 2.231 16.4523H1.02811C0.755439 16.4523 0.493935 16.344 0.301127 16.1512C0.108319 15.9584 0 15.6969 0 15.4242C0 15.1515 0.108319 14.89 0.301127 14.6972C0.493935 14.5044 0.755439 14.3961 1.02811 14.3961H2.231Z" fill="#FF611D"/>
</svg>