<svg width="16" height="14" viewBox="0 0 16 14" fill="none" xmlns="http://www.w3.org/2000/svg">
<path d="M13.4222 2.0379C13.0933 1.70886 12.7028 1.44783 12.273 1.26975C11.8432 1.09166 11.3826 1 10.9173 1C10.4521 1 9.99142 1.09166 9.56163 1.26975C9.13183 1.44783 8.74134 1.70886 8.41245 2.0379L7.72988 2.72046L7.04732 2.0379C6.38298 1.37356 5.48195 1.00034 4.54244 1.00034C3.60292 1.00034 2.70189 1.37356 2.03756 2.0379C1.37322 2.70224 1 3.60327 1 4.54278C1 5.48229 1.37322 6.38333 2.03756 7.04766L2.72012 7.73023L7.72988 12.74L12.7396 7.73023L13.4222 7.04766C13.7513 6.71877 14.0123 6.32827 14.1904 5.89848C14.3684 5.46868 14.4601 5.00801 14.4601 4.54278C14.4601 4.07755 14.3684 3.61688 14.1904 3.18708C14.0123 2.75729 13.7513 2.36679 13.4222 2.0379Z" stroke="#515151" stroke-width="1.2" stroke-linecap="round" stroke-linejoin="round"/>
</svg>
