<svg width="15" height="13" viewBox="0 0 15 13" fill="none" xmlns="http://www.w3.org/2000/svg">
<path d="M12.9033 1.99454C12.5881 1.67924 12.2139 1.42913 11.8021 1.25848C11.3903 1.08783 10.9488 1 10.503 1C10.0572 1 9.61581 1.08783 9.20397 1.25848C8.79213 1.42913 8.41794 1.67924 8.10279 1.99454L7.44874 2.64859L6.79469 1.99454C6.15811 1.35796 5.29472 1.00033 4.39445 1.00033C3.49419 1.00033 2.63079 1.35796 1.99421 1.99454C1.35763 2.63112 1 3.49452 1 4.39478C1 5.29505 1.35763 6.15844 1.99421 6.79502L2.64826 7.44907L7.44874 12.2495L12.2492 7.44907L12.9033 6.79502C13.2186 6.47987 13.4687 6.10569 13.6393 5.69384C13.81 5.282 13.8978 4.84058 13.8978 4.39478C13.8978 3.94899 13.81 3.50756 13.6393 3.09572C13.4687 2.68388 13.2186 2.30969 12.9033 1.99454Z" stroke="#898989" stroke-linecap="round" stroke-linejoin="round"/>
</svg>
