<svg width="13" height="15" viewBox="0 0 13 15" fill="none" xmlns="http://www.w3.org/2000/svg">
<path d="M11.8864 6.59553C11.8864 10.8291 6.44319 14.4579 6.44319 14.4579C6.44319 14.4579 1 10.8291 1 6.59553C1 5.15191 1.57348 3.76741 2.59427 2.74662C3.61507 1.72582 4.99957 1.15234 6.44319 1.15234C7.88681 1.15234 9.27131 1.72582 10.2921 2.74662C11.3129 3.76741 11.8864 5.15191 11.8864 6.59553Z" stroke="#898989" stroke-linecap="round" stroke-linejoin="round"/>
<path d="M6.4433 8.41004C7.44537 8.41004 8.2577 7.59771 8.2577 6.59565C8.2577 5.59358 7.44537 4.78125 6.4433 4.78125C5.44124 4.78125 4.62891 5.59358 4.62891 6.59565C4.62891 7.59771 5.44124 8.41004 6.4433 8.41004Z" stroke="#898989" stroke-linecap="round" stroke-linejoin="round"/>
</svg>
