<svg width="200" height="56" viewBox="0 0 200 56" fill="none" xmlns="http://www.w3.org/2000/svg">
<g clip-path="url(#clip0_1898_565)">
<path d="M8.8747 38.9311C8.8747 46.2964 14.6343 49.1607 21.7457 49.1607C29.5623 49.1607 32.4421 45.5365 32.4421 41.9123C32.4421 38.2881 30.3264 36.7682 28.3281 36.0083C24.7431 34.7223 20.1001 33.8455 13.165 32.0334C4.46682 29.8121 1.88087 24.9019 1.88087 19.9332C1.88087 10.4634 11.3431 5.9624 20.4527 5.9624C31.0316 5.9624 39.9649 11.2234 39.9649 21.2192H31.0316C30.6202 15.0814 26.2123 12.8017 20.1001 12.8017C15.9861 12.8017 10.7554 14.2046 10.7554 19.0563C10.7554 22.3883 13.2238 24.2589 16.8089 25.1941C17.6317 25.3695 28.8571 28.1169 31.5018 28.8768C38.143 30.7474 41.3754 36.1252 41.3754 41.0355C41.3754 51.7328 31.2667 56 21.158 56C9.52119 56 0.117721 50.7975 -0.0585938 38.9311H8.8747Z" fill="#FF611D"/>
<path d="M48.0752 56V5.9624H83.6321V13.5616H57.0673V26.1294H80.3996V33.8455H57.0673V56.0584H48.0752V56Z" fill="white"/>
<path d="M136.056 30.9812C136.056 44.6597 127.064 56 112.019 56C96.973 56 87.981 44.6012 87.981 30.9812C87.981 17.3612 96.973 5.9624 112.019 5.9624C127.064 5.9624 136.056 17.3612 136.056 30.9812ZM96.7379 30.9812C96.7379 40.1586 101.205 49.1607 112.019 49.1607C122.833 49.1607 127.299 40.1002 127.299 30.9812C127.299 21.8622 122.833 12.8017 112.019 12.8017C101.205 12.8017 96.7379 21.8622 96.7379 30.9812Z" fill="white"/>
<path d="M186.012 30.9812C186.012 44.6597 177.02 56 161.975 56C146.929 56 137.937 44.6012 137.937 30.9812C137.937 17.3612 146.929 5.9624 161.975 5.9624C177.02 5.9624 186.012 17.3612 186.012 30.9812ZM146.694 30.9812C146.694 40.1586 151.161 49.1607 161.975 49.1607C172.789 49.1607 177.255 40.1002 177.255 30.9812C177.255 21.8622 172.789 12.8017 161.975 12.8017C151.161 12.8017 146.694 21.8622 146.694 30.9812Z" fill="white"/>
<path d="M123.362 41.0354C128.133 41.0354 132.001 36.534 132.001 30.9812C132.001 25.4283 128.133 20.9269 123.362 20.9269C118.59 20.9269 114.722 25.4283 114.722 30.9812C114.722 36.534 118.59 41.0354 123.362 41.0354Z" fill="white"/>
<path d="M174.023 41.0354C178.794 41.0354 182.662 36.534 182.662 30.9812C182.662 25.4283 178.794 20.9269 174.023 20.9269C169.251 20.9269 165.383 25.4283 165.383 30.9812C165.383 36.534 169.251 41.0354 174.023 41.0354Z" fill="white"/>
<path d="M194.005 11.9248C197.316 11.9248 200 9.25538 200 5.96242C200 2.66947 197.316 0 194.005 0C190.695 0 188.011 2.66947 188.011 5.96242C188.011 9.25538 190.695 11.9248 194.005 11.9248Z" fill="#FF611D"/>
</g>
<defs>
<clipPath id="clip0_1898_565">
<rect width="200" height="56" fill="white"/>
</clipPath>
</defs>
</svg>
