<svg width="106" height="30" viewBox="0 0 106 30" fill="none" xmlns="http://www.w3.org/2000/svg">
<g clip-path="url(#clip0_1883_210)">
<path d="M4.7034 20.8561C4.7034 24.8019 7.756 26.3363 11.525 26.3363C15.6678 26.3363 17.1941 24.3948 17.1941 22.4532C17.1941 20.5117 16.0728 19.6975 15.0137 19.2904C13.1136 18.6014 10.6529 18.1317 6.97727 17.1609C2.36722 15.971 0.996667 13.3405 0.996667 10.6787C0.996667 5.60561 6.01165 3.19434 10.8397 3.19434C16.4466 3.19434 21.1812 6.01271 21.1812 11.3676H16.4466C16.2285 8.07951 13.8923 6.85822 10.6529 6.85822C8.47242 6.85822 5.70016 7.60979 5.70016 10.209C5.70016 11.9939 7.00842 12.996 8.90851 13.4971C9.34459 13.591 15.2941 15.0628 16.6958 15.4699C20.2156 16.472 21.9288 19.353 21.9288 21.9835C21.9288 27.7142 16.5712 30.0002 11.2135 30.0002C5.04603 30.0002 0.062197 27.2131 -0.03125 20.8561H4.7034Z" fill="#FF6022"/>
<path d="M25.48 30.0002V3.19434H44.3251V7.26532H30.2458V13.9981H42.6119V18.1317H30.2458V30.0315H25.48V30.0002Z" fill="black"/>
<path d="M72.1098 16.5973C72.1098 23.925 67.344 30.0002 59.3698 30.0002C51.3957 30.0002 46.6299 23.8937 46.6299 16.5973C46.6299 9.30081 51.3957 3.19434 59.3698 3.19434C67.344 3.19434 72.1098 9.30081 72.1098 16.5973ZM51.2711 16.5973C51.2711 21.5138 53.6384 26.3363 59.3698 26.3363C65.1012 26.3363 67.4686 21.4824 67.4686 16.5973C67.4686 11.7121 65.1012 6.85822 59.3698 6.85822C53.6384 6.85822 51.2711 11.7121 51.2711 16.5973Z" fill="black"/>
<path d="M98.5863 16.5973C98.5863 23.925 93.8205 30.0002 85.8464 30.0002C77.8722 30.0002 73.1064 23.8937 73.1064 16.5973C73.1064 9.30081 77.8722 3.19434 85.8464 3.19434C93.8205 3.19434 98.5863 9.30081 98.5863 16.5973ZM77.7476 16.5973C77.7476 21.5138 80.115 26.3363 85.8464 26.3363C91.5778 26.3363 93.9451 21.4824 93.9451 16.5973C93.9451 11.7121 91.5778 6.85822 85.8464 6.85822C80.115 6.85822 77.7476 11.7121 77.7476 16.5973Z" fill="black"/>
<path d="M65.3816 21.9834C67.9105 21.9834 69.9605 19.5719 69.9605 16.5972C69.9605 13.6224 67.9105 11.2109 65.3816 11.2109C62.8528 11.2109 60.8027 13.6224 60.8027 16.5972C60.8027 19.5719 62.8528 21.9834 65.3816 21.9834Z" fill="black"/>
<path d="M92.2322 21.9834C94.7611 21.9834 96.8111 19.5719 96.8111 16.5972C96.8111 13.6224 94.7611 11.2109 92.2322 11.2109C89.7034 11.2109 87.6533 13.6224 87.6533 16.5972C87.6533 19.5719 89.7034 21.9834 92.2322 21.9834Z" fill="black"/>
<path d="M102.823 6.38831C104.577 6.38831 106 4.95824 106 3.19415C106 1.43007 104.577 0 102.823 0C101.068 0 99.6455 1.43007 99.6455 3.19415C99.6455 4.95824 101.068 6.38831 102.823 6.38831Z" fill="#FF6022"/>
</g>
<defs>
<clipPath id="clip0_1883_210">
<rect width="106" height="30" fill="white"/>
</clipPath>
</defs>
</svg>
