<svg width="26" height="23" viewBox="0 0 26 23" fill="none" xmlns="http://www.w3.org/2000/svg">
<path d="M24.6887 18.9371C24.6887 19.5083 24.4618 20.056 24.0579 20.4599C23.6541 20.8637 23.1063 21.0906 22.5352 21.0906H3.15352C2.58237 21.0906 2.03461 20.8637 1.63075 20.4599C1.22689 20.056 1 19.5083 1 18.9371V7.09277C1 6.52162 1.22689 5.97387 1.63075 5.57001C2.03461 5.16614 2.58237 4.93926 3.15352 4.93926H7.46055L9.61406 1.70898H16.0746L18.2281 4.93926H22.5352C23.1063 4.93926 23.6541 5.16614 24.0579 5.57001C24.4618 5.97387 24.6887 6.52162 24.6887 7.09277V18.9371Z" stroke="#858585" stroke-width="2" stroke-linecap="round" stroke-linejoin="round"/>
<path d="M12.8441 16.7845C15.2228 16.7845 17.1512 14.8561 17.1512 12.4774C17.1512 10.0987 15.2228 8.17041 12.8441 8.17041C10.4654 8.17041 8.53711 10.0987 8.53711 12.4774C8.53711 14.8561 10.4654 16.7845 12.8441 16.7845Z" stroke="#858585" stroke-width="2" stroke-linecap="round" stroke-linejoin="round"/>
</svg>
