<svg width="20" height="20" viewBox="0 0 20 20" fill="none" xmlns="http://www.w3.org/2000/svg">
<path d="M18.8775 17.7258C19.4965 17.7258 20 18.2359 20 18.8629C20 19.4912 19.4965 20 18.8775 20H12.533C11.914 20 11.4105 19.4912 11.4105 18.8629C11.4105 18.2359 11.914 17.7258 12.533 17.7258H18.8775ZM14.4776 0.776737L16.1165 2.07865C16.7886 2.60419 17.2366 3.29695 17.3899 4.02554C17.5668 4.827 17.3781 5.61412 16.8475 6.29493L7.08489 18.9199C6.63684 19.4932 5.97657 19.8157 5.26913 19.8276L1.37822 19.8754C1.16599 19.8754 0.989126 19.7321 0.941963 19.529L0.0576649 15.695C-0.0956134 14.9903 0.0576649 14.2617 0.505709 13.7003L7.42682 4.74219C7.54472 4.59886 7.75695 4.57617 7.89844 4.68247L10.8107 6.99964C10.9994 7.15491 11.2588 7.23852 11.53 7.20269C12.1077 7.13102 12.4968 6.60548 12.4378 6.0441C12.4025 5.75745 12.261 5.51856 12.0723 5.3394C12.0134 5.29162 9.24257 3.07001 9.24257 3.07001C9.06571 2.92668 9.03034 2.66391 9.17183 2.48594L10.2684 1.0634C11.2824 -0.238515 13.051 -0.357956 14.4776 0.776737Z" fill="#949494"/>
</svg>
