<svg width="14" height="14" viewBox="0 0 14 14" fill="none" xmlns="http://www.w3.org/2000/svg">
<path d="M12.6111 10.0759V11.8274C12.6118 11.99 12.5785 12.1509 12.5133 12.2999C12.4482 12.4489 12.3526 12.5826 12.2328 12.6925C12.113 12.8024 11.9716 12.8861 11.8175 12.9382C11.6635 12.9903 11.5003 13.0096 11.3384 12.995C9.54186 12.7998 7.81618 12.1859 6.3 11.2027C4.88939 10.3063 3.69343 9.11037 2.79707 7.69975C1.8104 6.17668 1.19637 4.44261 1.00474 2.63802C0.990149 2.47658 1.00934 2.31386 1.06108 2.16024C1.11282 2.00661 1.19598 1.86544 1.30527 1.74572C1.41456 1.626 1.54758 1.53034 1.69586 1.46485C1.84414 1.39935 2.00444 1.36544 2.16654 1.36529H3.91801C4.20134 1.3625 4.47602 1.46284 4.69085 1.64759C4.90568 1.83234 5.04599 2.08891 5.08565 2.36946C5.15957 2.92997 5.29667 3.48032 5.49432 4.01C5.57287 4.21897 5.58987 4.44607 5.54331 4.6644C5.49675 4.88272 5.38857 5.08313 5.2316 5.24186L4.49015 5.98332C5.32125 7.44494 6.53146 8.65514 7.99308 9.48625L8.73453 8.74479C8.89327 8.58782 9.09367 8.47965 9.312 8.43309C9.53033 8.38652 9.75743 8.40352 9.9664 8.48207C10.4961 8.67973 11.0464 8.81682 11.6069 8.89075C11.8905 8.93076 12.1495 9.0736 12.3347 9.29212C12.5198 9.51064 12.6182 9.78958 12.6111 10.0759Z" stroke="#898989" stroke-linecap="round" stroke-linejoin="round"/>
</svg>
