<svg width="18" height="21" viewBox="0 0 18 21" fill="none" xmlns="http://www.w3.org/2000/svg">
<path d="M15.9391 7.33459C16.1384 7.33459 16.3193 7.41796 16.4623 7.55884C16.5955 7.70929 16.6626 7.89617 16.6432 8.09358C16.6432 8.15875 16.1102 14.6179 15.8058 17.3366C15.6152 19.0051 14.4929 20.018 12.8094 20.0458C11.5149 20.0736 10.2496 20.0832 9.00379 20.0832C7.68112 20.0832 6.38763 20.0736 5.13206 20.0458C3.50498 20.0084 2.38168 18.9773 2.20079 17.3366C1.88763 14.6083 1.36439 8.15875 1.35467 8.09358C1.34494 7.89617 1.41108 7.70929 1.54529 7.55884C1.67756 7.41796 1.86818 7.33459 2.06852 7.33459H15.9391ZM11.0647 0.916504C11.9488 0.916504 12.7385 1.50779 12.967 2.35111L13.1304 3.05069C13.2627 3.62089 13.7781 4.02435 14.3714 4.02435H17.2871C17.6761 4.02435 18 4.33389 18 4.72776V5.09192C18 5.47621 17.6761 5.79533 17.2871 5.79533H0.713853C0.32386 5.79533 0 5.47621 0 5.09192V4.72776C0 4.33389 0.32386 4.02435 0.713853 4.02435H3.62957C4.22185 4.02435 4.7373 3.62089 4.87054 3.05165L5.02323 2.39807C5.26054 1.50779 6.0415 0.916504 6.93527 0.916504H11.0647Z" fill="#949494"/>
</svg>
