<svg width="18" height="16" viewBox="0 0 18 16" fill="none" xmlns="http://www.w3.org/2000/svg">
<path d="M13.5905 9.86415C13.3694 10.0736 13.2678 10.3766 13.3182 10.6736L14.0771 14.7795C14.1412 15.1275 13.9909 15.4797 13.6929 15.6808C13.401 15.8895 13.0125 15.9145 12.6941 15.7476L8.91288 13.8198C8.78141 13.7514 8.63542 13.7147 8.48602 13.7105H8.25465C8.1744 13.7222 8.09586 13.7472 8.02415 13.7856L4.2421 15.7226C4.05513 15.8144 3.84341 15.8469 3.63595 15.8144C3.13054 15.7209 2.79331 15.2502 2.87613 14.7537L3.63595 10.6478C3.68632 10.3482 3.58473 10.0436 3.36361 9.83077L0.280773 6.90991C0.0229448 6.6654 -0.0666973 6.2982 0.051118 5.96689C0.165518 5.63642 0.457496 5.39524 0.810088 5.341L5.05315 4.7393C5.37586 4.70675 5.6593 4.51481 5.80444 4.23107L7.67411 0.484028C7.71851 0.400575 7.77571 0.323798 7.84486 0.258705L7.9217 0.200287C7.96182 0.156892 8.00792 0.121007 8.05915 0.0917984L8.15221 0.0584171L8.29734 0H8.65676C8.97777 0.0325467 9.26035 0.220316 9.40805 0.500718L11.3025 4.23107C11.4391 4.50396 11.7046 4.6934 12.0111 4.7393L16.2541 5.341C16.6127 5.39107 16.9124 5.63308 17.031 5.96689C17.1429 6.30154 17.0464 6.66873 16.7835 6.90991L13.5905 9.86415Z" fill="#FFB21D"/>
</svg>