<svg width="13" height="13" viewBox="0 0 13 13" fill="none" xmlns="http://www.w3.org/2000/svg">
<path d="M6.27051 11.4146H11.5403H6.27051Z" fill="white"/>
<path d="M6.27051 11.4146H11.5403" stroke="white" stroke-width="1.2" stroke-linecap="round" stroke-linejoin="round"/>
<path d="M8.90532 1.7525C9.13828 1.51955 9.45423 1.38867 9.78369 1.38867C9.94681 1.38867 10.1083 1.4208 10.2591 1.48323C10.4098 1.54566 10.5467 1.63715 10.6621 1.7525C10.7774 1.86785 10.8689 2.00479 10.9313 2.1555C10.9938 2.30621 11.0259 2.46774 11.0259 2.63087C11.0259 2.794 10.9938 2.95553 10.9313 3.10624C10.8689 3.25695 10.7774 3.39389 10.6621 3.50924L3.34232 10.829L1 11.4146L1.58558 9.07224L8.90532 1.7525Z" fill="white" stroke="white" stroke-width="1.2" stroke-linecap="round" stroke-linejoin="round"/>
</svg>
