<svg width="11" height="10" viewBox="0 0 11 10" fill="none" xmlns="http://www.w3.org/2000/svg">
<path d="M8.69567 6.23677C8.56112 6.36423 8.4993 6.54857 8.52995 6.72935L8.99179 9.22781C9.03075 9.43957 8.93932 9.65387 8.75801 9.77625C8.58034 9.9032 8.34397 9.91844 8.1502 9.81687L5.84932 8.64382C5.76932 8.60218 5.68048 8.57983 5.58957 8.57729H5.44878C5.39995 8.5844 5.35216 8.59964 5.30852 8.623L3.00712 9.80164C2.89335 9.8575 2.76452 9.87731 2.63828 9.8575C2.33073 9.80062 2.12553 9.51422 2.17592 9.21207L2.63828 6.71361C2.66893 6.5313 2.60711 6.34595 2.47256 6.21645L0.596633 4.4391C0.439743 4.29031 0.385196 4.06687 0.456887 3.86526C0.5265 3.66417 0.70417 3.51741 0.918724 3.4844L3.50065 3.11827C3.69702 3.09846 3.8695 2.98166 3.95781 2.80901L5.09552 0.528909C5.12254 0.478127 5.15734 0.431408 5.19942 0.391798L5.24618 0.356251C5.27059 0.329845 5.29865 0.308008 5.32982 0.290235L5.38644 0.269922L5.47476 0.234375H5.69347C5.8888 0.25418 6.06076 0.368439 6.15063 0.539065L7.30341 2.80901C7.38653 2.97506 7.54809 3.09034 7.73459 3.11827L10.3165 3.4844C10.5347 3.51487 10.7171 3.66214 10.7893 3.86526C10.8573 4.0689 10.7986 4.29234 10.6386 4.4391L8.69567 6.23677Z" fill="#CDCDCD"/>
</svg>
