<svg width="27" height="23" viewBox="0 0 27 23" fill="none" xmlns="http://www.w3.org/2000/svg">
<path d="M25.7742 19.0176C25.7742 19.6149 25.5369 20.1878 25.1146 20.6102C24.6922 21.0325 24.1193 21.2698 23.522 21.2698H3.2522C2.65488 21.2698 2.08202 21.0325 1.65965 20.6102C1.23728 20.1878 1 19.6149 1 19.0176V6.6305C1 6.03318 1.23728 5.46032 1.65965 5.03796C2.08202 4.61559 2.65488 4.3783 3.2522 4.3783H7.7566L10.0088 1H16.7654L19.0176 4.3783H23.522C24.1193 4.3783 24.6922 4.61559 25.1146 5.03796C25.5369 5.46032 25.7742 6.03318 25.7742 6.6305V19.0176Z" stroke="#878787" stroke-width="1.5" stroke-linecap="round" stroke-linejoin="round"/>
<path d="M13.3872 16.7647C15.8749 16.7647 17.8916 14.748 17.8916 12.2603C17.8916 9.77255 15.8749 7.75586 13.3872 7.75586C10.8995 7.75586 8.88281 9.77255 8.88281 12.2603C8.88281 14.748 10.8995 16.7647 13.3872 16.7647Z" stroke="#878787" stroke-width="1.5" stroke-linecap="round" stroke-linejoin="round"/>
</svg>
