<svg width="40" height="37" viewBox="0 0 40 37" fill="none" xmlns="http://www.w3.org/2000/svg">
<path d="M31.2343 22.6702C30.7261 23.1517 30.4926 23.8479 30.6084 24.5307L32.3527 33.967C32.4999 34.7668 32.1545 35.5762 31.4698 36.0384C30.7987 36.5179 29.906 36.5754 29.1741 36.1918L20.484 31.7614C20.1818 31.6041 19.8463 31.5197 19.503 31.5101H18.9712C18.7868 31.537 18.6063 31.5945 18.4415 31.6827L9.74939 36.1343C9.3197 36.3453 8.8331 36.4201 8.35631 36.3453C7.19475 36.1305 6.41972 35.0487 6.61005 33.9076L8.35631 24.4712C8.47207 23.7827 8.23858 23.0826 7.7304 22.5935L0.645285 15.8807C0.0527328 15.3187 -0.153287 14.4748 0.117482 13.7134C0.380402 12.9539 1.05144 12.3996 1.86178 12.2749L11.6134 10.8921C12.3551 10.8173 13.0065 10.3761 13.34 9.72404L17.637 1.11241C17.739 0.920619 17.8705 0.744167 18.0294 0.594567L18.206 0.46031C18.2982 0.360576 18.4042 0.278104 18.5219 0.210975L18.7358 0.134257L19.0693 0H19.8954C20.6331 0.0748003 21.2826 0.506341 21.622 1.15077L25.9759 9.72404C26.2898 10.3512 26.9 10.7866 27.6044 10.8921L37.356 12.2749C38.1801 12.39 38.8688 12.9462 39.1415 13.7134C39.3986 14.4825 39.1769 15.3264 38.5725 15.8807L31.2343 22.6702Z" fill="#DFDFDF"/>
</svg>
