<svg width="126" height="22" viewBox="0 0 126 22" fill="none" xmlns="http://www.w3.org/2000/svg">
<path d="M18.4751 13.8079C18.1745 14.0926 18.0364 14.5044 18.1048 14.9083L19.1366 20.4899C19.2236 20.963 19.0194 21.4417 18.6143 21.7151C18.2174 21.9988 17.6894 22.0328 17.2565 21.8059L12.1163 19.1853C11.9375 19.0922 11.7391 19.0423 11.536 19.0367H11.2215C11.1124 19.0525 11.0056 19.0866 10.9081 19.1388L5.76676 21.7719C5.51259 21.8967 5.22477 21.9409 4.94275 21.8967C4.25569 21.7696 3.79726 21.1298 3.90984 20.4547L4.94275 14.8731C5.01123 14.4659 4.87312 14.0518 4.57253 13.7625L0.381686 9.79185C0.0311914 9.45945 -0.0906691 8.96029 0.0694904 8.5099C0.225008 8.06065 0.621925 7.73279 1.10124 7.65905L6.86931 6.84109C7.30801 6.79685 7.69332 6.53592 7.89062 6.1502L10.4323 1.05643C10.4926 0.942983 10.5704 0.838612 10.6644 0.750123L10.7688 0.67071C10.8234 0.611718 10.8861 0.562936 10.9557 0.523229L11.0822 0.47785L11.2795 0.398438H11.7681C12.2045 0.442682 12.5886 0.697938 12.7894 1.07912L15.3647 6.1502C15.5504 6.52117 15.9114 6.7787 16.328 6.84109L22.0961 7.65905C22.5835 7.72712 22.9909 8.05611 23.1522 8.5099C23.3042 8.96482 23.1731 9.46399 22.8156 9.79185L18.4751 13.8079Z" fill="#FFB21D"/>
<path d="M44.144 13.8079C43.8434 14.0926 43.7053 14.5044 43.7738 14.9083L44.8055 20.4899C44.8926 20.963 44.6883 21.4417 44.2833 21.7151C43.8864 21.9988 43.3583 22.0328 42.9254 21.8059L37.7852 19.1853C37.6065 19.0922 37.408 19.0423 37.2049 19.0367H36.8904C36.7813 19.0525 36.6745 19.0866 36.5771 19.1388L31.4357 21.7719C31.1815 21.8967 30.8937 21.9409 30.6117 21.8967C29.9246 21.7696 29.4662 21.1298 29.5788 20.4547L30.6117 14.8731C30.6802 14.4659 30.5421 14.0518 30.2415 13.7625L26.0506 9.79185C25.7001 9.45945 25.5783 8.96029 25.7384 8.5099C25.894 8.06065 26.2909 7.73279 26.7702 7.65905L32.5383 6.84109C32.977 6.79685 33.3623 6.53592 33.5596 6.1502L36.1012 1.05643C36.1616 0.942983 36.2393 0.838612 36.3333 0.750123L36.4378 0.67071C36.4923 0.611718 36.555 0.562936 36.6246 0.523229L36.7511 0.47785L36.9484 0.398438H37.437C37.8734 0.442682 38.2576 0.697938 38.4584 1.07912L41.0337 6.1502C41.2194 6.52117 41.5803 6.7787 41.997 6.84109L47.765 7.65905C48.2525 7.72712 48.6598 8.05611 48.8211 8.5099C48.9732 8.96482 48.842 9.46399 48.4846 9.79185L44.144 13.8079Z" fill="#FFB21D"/>
<path d="M69.813 13.8079C69.5124 14.0926 69.3743 14.5044 69.4427 14.9083L70.4745 20.4899C70.5615 20.963 70.3573 21.4417 69.9522 21.7151C69.5553 21.9988 69.0273 22.0328 68.5944 21.8059L63.4542 19.1853C63.2754 19.0922 63.077 19.0423 62.8739 19.0367H62.5594C62.4503 19.0525 62.3435 19.0866 62.246 19.1388L57.1047 21.7719C56.8505 21.8967 56.5627 21.9409 56.2806 21.8967C55.5936 21.7696 55.1352 21.1298 55.2477 20.4547L56.2806 14.8731C56.3491 14.4659 56.211 14.0518 55.9104 13.7625L51.7196 9.79185C51.3691 9.45945 51.2472 8.96029 51.4074 8.5099C51.5629 8.06065 51.9598 7.73279 52.4391 7.65905L58.2072 6.84109C58.6459 6.79685 59.0312 6.53592 59.2285 6.1502L61.7702 1.05643C61.8305 0.942983 61.9083 0.838612 62.0023 0.750123L62.1067 0.67071C62.1613 0.611718 62.224 0.562936 62.2936 0.523229L62.4201 0.47785L62.6174 0.398438H63.106C63.5424 0.442682 63.9265 0.697938 64.1273 1.07912L66.7026 6.1502C66.8883 6.52117 67.2493 6.7787 67.6659 6.84109L73.434 7.65905C73.9214 7.72712 74.3288 8.05611 74.4901 8.5099C74.6421 8.96482 74.511 9.46399 74.1535 9.79185L69.813 13.8079Z" fill="#FFB21D"/>
<path d="M95.4809 13.8079C95.1803 14.0926 95.0422 14.5044 95.1107 14.9083L96.1425 20.4899C96.2295 20.963 96.0252 21.4417 95.6202 21.7151C95.2233 21.9988 94.6952 22.0328 94.2623 21.8059L89.1221 19.1853C88.9434 19.0922 88.7449 19.0423 88.5418 19.0367H88.2273C88.1182 19.0525 88.0115 19.0866 87.914 19.1388L82.7726 21.7719C82.5185 21.8967 82.2306 21.9409 81.9486 21.8967C81.2615 21.7696 80.8031 21.1298 80.9157 20.4547L81.9486 14.8731C82.0171 14.4659 81.879 14.0518 81.5784 13.7625L77.3875 9.79185C77.0371 9.45945 76.9152 8.96029 77.0753 8.5099C77.2309 8.06065 77.6278 7.73279 78.1071 7.65905L83.8752 6.84109C84.3139 6.79685 84.6992 6.53592 84.8965 6.1502L87.4381 1.05643C87.4985 0.942983 87.5762 0.838612 87.6703 0.750123L87.7747 0.67071C87.8293 0.611718 87.8919 0.562936 87.9616 0.523229L88.0881 0.47785L88.2854 0.398438H88.774C89.2103 0.442682 89.5945 0.697938 89.7953 1.07912L92.3706 6.1502C92.5563 6.52117 92.9172 6.7787 93.3339 6.84109L99.1019 7.65905C99.5894 7.72712 99.9967 8.05611 100.158 8.5099C100.31 8.96482 100.179 9.46399 99.8215 9.79185L95.4809 13.8079Z" fill="#FFB21D"/>
<path d="M121.15 13.8079C120.849 14.0926 120.711 14.5044 120.78 14.9083L121.811 20.4899C121.898 20.963 121.694 21.4417 121.289 21.7151C120.892 21.9988 120.364 22.0328 119.931 21.8059L114.791 19.1853C114.612 19.0922 114.414 19.0423 114.211 19.0367H113.896C113.787 19.0525 113.68 19.0866 113.583 19.1388L108.442 21.7719C108.187 21.8967 107.9 21.9409 107.618 21.8967C106.93 21.7696 106.472 21.1298 106.585 20.4547L107.618 14.8731C107.686 14.4659 107.548 14.0518 107.247 13.7625L103.056 9.79185C102.706 9.45945 102.584 8.96029 102.744 8.5099C102.9 8.06065 103.297 7.73279 103.776 7.65905L109.544 6.84109C109.983 6.79685 110.368 6.53592 110.565 6.1502L113.107 1.05643C113.167 0.942983 113.245 0.838612 113.339 0.750123L113.444 0.67071C113.498 0.611718 113.561 0.562936 113.631 0.523229L113.757 0.47785L113.954 0.398438H114.443C114.879 0.442682 115.263 0.697938 115.464 1.07912L118.04 6.1502C118.225 6.52117 118.586 6.7787 119.003 6.84109L124.771 7.65905C125.258 7.72712 125.666 8.05611 125.827 8.5099C125.979 8.96482 125.848 9.46399 125.49 9.79185L121.15 13.8079Z" fill="#CDCDCD"/>
</svg>
