<svg width="15" height="13" viewBox="0 0 15 13" fill="none" xmlns="http://www.w3.org/2000/svg">
    <path d="M11.7028 8.08683C11.5215 8.25855 11.4382 8.5069 11.4795 8.75047L12.1017 12.1166C12.1542 12.4019 12.031 12.6906 11.7868 12.8555C11.5474 13.0265 11.229 13.047 10.9679 12.9102L7.86799 11.3298C7.76021 11.2737 7.64052 11.2436 7.51804 11.2401H7.32836C7.26257 11.2497 7.19818 11.2702 7.13939 11.3017L4.03879 12.8897C3.88551 12.9649 3.71194 12.9916 3.54186 12.9649C3.12751 12.8883 2.85105 12.5024 2.91894 12.0953L3.54186 8.72926C3.58315 8.48364 3.49986 8.23392 3.31859 8.05946L0.791218 5.66488C0.579846 5.46442 0.506355 5.16339 0.602943 4.89178C0.69673 4.62085 0.936099 4.42313 1.22516 4.37865L4.70371 3.88537C4.96827 3.85869 5.20064 3.70133 5.31963 3.46872L6.85243 0.396816C6.88882 0.328399 6.93572 0.265456 6.99241 0.212091L7.0554 0.1642C7.08829 0.128623 7.12609 0.0992039 7.16808 0.0752581L7.24438 0.0478915L7.36336 0H7.65802C7.92119 0.0266824 8.15286 0.18062 8.27394 0.410499L9.82704 3.46872C9.93902 3.69244 10.1567 3.84774 10.408 3.88537L13.8865 4.37865C14.1805 4.4197 14.4261 4.61811 14.5234 4.89178C14.6151 5.16613 14.536 5.46716 14.3205 5.66488L11.7028 8.08683Z" fill="#FFB21D"/>
</svg>