<svg width="24" height="22" viewBox="0 0 24 22" fill="none" xmlns="http://www.w3.org/2000/svg">
<path d="M18.4751 13.8079C18.1745 14.0926 18.0364 14.5044 18.1048 14.9083L19.1366 20.4899C19.2236 20.963 19.0194 21.4417 18.6143 21.7151C18.2174 21.9988 17.6894 22.0328 17.2565 21.8059L12.1163 19.1853C11.9375 19.0922 11.7391 19.0423 11.536 19.0367H11.2215C11.1124 19.0525 11.0056 19.0866 10.9081 19.1388L5.76676 21.7719C5.51259 21.8967 5.22477 21.9409 4.94275 21.8967C4.25569 21.7696 3.79726 21.1298 3.90984 20.4547L4.94275 14.8731C5.01123 14.4659 4.87312 14.0518 4.57253 13.7625L0.381686 9.79185C0.0311914 9.45945 -0.0906691 8.96029 0.0694904 8.5099C0.225008 8.06065 0.621925 7.73279 1.10124 7.65905L6.86931 6.84109C7.30801 6.79685 7.69332 6.53592 7.89062 6.1502L10.4323 1.05643C10.4926 0.942983 10.5704 0.838612 10.6644 0.750123L10.7688 0.67071C10.8234 0.611718 10.8861 0.562936 10.9557 0.523229L11.0822 0.47785L11.2795 0.398438H11.7681C12.2045 0.442682 12.5886 0.697938 12.7894 1.07912L15.3647 6.1502C15.5504 6.52117 15.9114 6.7787 16.328 6.84109L22.0961 7.65905C22.5835 7.72712 22.9909 8.05611 23.1522 8.5099C23.3042 8.96482 23.1731 9.46399 22.8156 9.79185L18.4751 13.8079Z" fill="#FFB21D"/>
</svg>
