<svg width="14" height="10" viewBox="0 0 14 10" fill="none" xmlns="http://www.w3.org/2000/svg">
    <path d="M7.28072 0.729492C4.24718 0.729492 1.65654 2.61635 0.606934 5.2798C1.65654 7.94325 4.24718 9.83011 7.28072 9.83011C10.3143 9.83011 12.9049 7.94325 13.9545 5.2798C12.9049 2.61635 10.3143 0.729492 7.28072 0.729492ZM7.28072 8.31334C5.60621 8.31334 4.24718 6.95432 4.24718 5.2798C4.24718 3.60529 5.60621 2.24626 7.28072 2.24626C8.95524 2.24626 10.3143 3.60529 10.3143 5.2798C10.3143 6.95432 8.95524 8.31334 7.28072 8.31334ZM7.28072 3.45968C6.27359 3.45968 5.4606 4.27267 5.4606 5.2798C5.4606 6.28694 6.27359 7.09993 7.28072 7.09993C8.28786 7.09993 9.10085 6.28694 9.10085 5.2798C9.10085 4.27267 8.28786 3.45968 7.28072 3.45968Z" fill="black"/>
</svg>